#!OML:ASF H:\BreakDance\Project 1\Capture day 1\Session 1\Male.ASF
:FULLY-SPECIFIED
:DEGREES
90
root 12.8545 16.0034 1.38004 -43.962 -88.9824 42.7918
lowerback -6.44294 0.870313 0.573876
upperback 3.8613 1.22085 -2.03634
thorax 7.73502 0.674554 -2.30869
lowerneck -5.53875 -1.14176 -1.41988
upperneck 6.38412 -1.77072 4.47362
head 3.09145 -0.764279 1.63191
rclavicle 6.16232e-015 -7.15625e-015
rhumerus -31.9992 3.79416 -88.5648
rradius 52.4271
rwrist 12.9594
rhand -32.6506 -27.8358
rfingers 7.12502
rthumb -5.87693 -57.7343
lclavicle 6.16232e-015 -7.15625e-015
lhumerus -29.0478 -8.00857 83.3174
lradius 55.2098
lwrist -10.3866
lhand -26.5917 -22.717
lfingers 7.12502
lthumb -0.0257201 7.26271
rfemur -12.4435 4.48686 13.4394
rtibia 43.7395
rfoot -27.4855 -21.0295
rtoes -4.89215
lfemur -15.7814 1.32177 -11.4414
ltibia 42.3642
lfoot -30.945 17.8232
ltoes -26.1931
91
root 12.8526 16.0037 1.38058 -45.2062 -88.9972 44.0445
lowerback -6.44746 0.896462 0.613797
upperback 3.85415 1.25453 -2.07677
thorax 7.73371 0.694216 -2.36943
lowerneck -5.54778 -1.14528 -1.3553
upperneck 6.39551 -1.7839 4.49793
head 3.09697 -0.768403 1.62791
rclavicle -1.60022e-014 1.94809e-014
rhumerus -32.0006 3.66563 -88.5968
rradius 52.4093
rwrist 13.043
rhand -32.7999 -27.8225
rfingers 7.12502
rthumb -6.02101 -57.7169
lclavicle -1.60022e-014 1.94809e-014
lhumerus -29.0689 -8.10411 83.304
lradius 55.2081
lwrist -10.3772
lhand -26.6327 -22.6903
lfingers 7.12502
lthumb -0.065307 7.28946
rfemur -12.4532 4.50089 13.4277
rtibia 43.7437
rfoot -27.542 -20.9526
rtoes -4.6498
lfemur -15.7702 1.35107 -11.4482
ltibia 42.3583
lfoot -30.9576 17.8002
ltoes -26.1151
92
root 12.8504 16.0039 1.38095 -46.5995 -89.0315 45.4485
lowerback -6.45744 0.889857 0.615584
upperback 3.86277 1.24504 -2.0678
thorax 7.74812 0.689539 -2.36214
lowerneck -5.6377 -1.125 -1.35986
upperneck 6.44447 -1.75793 4.498
head 3.13011 -0.754002 1.63047
rclavicle 1.09332e-015 -6.36111e-015
rhumerus -31.9486 3.67415 -88.5989
rradius 52.3805
rwrist 13.1105
rhand -32.9778 -27.7738
rfingers 7.12502
rthumb -6.19276 -57.6632
lclavicle 1.09332e-015 -6.36111e-015
lhumerus -29.0691 -8.05028 83.3136
lradius 55.2055
lwrist -10.3726
lhand -26.6671 -22.7088
lfingers 7.12502
lthumb -0.0985203 7.27096
rfemur -12.4698 4.53785 13.4339
rtibia 43.7497
rfoot -27.586 -20.8965
rtoes -4.44367
lfemur -15.7586 1.39897 -11.4388
ltibia 42.3526
lfoot -30.9579 17.7692
ltoes -26.0721
93
root 12.8481 16.0041 1.38094 -47.988 -89.0873 46.855
lowerback -6.47345 0.872349 0.605285
upperback 3.8772 1.22056 -2.03229
thorax 7.77053 0.676254 -2.32195
lowerneck -5.76296 -1.09971 -1.39218
upperneck 6.51163 -1.72186 4.48246
head 3.17612 -0.735112 1.63356
rclavicle 4.47266e-016 -3.97569e-015
rhumerus -31.869 3.74018 -88.5849
rradius 52.35
rwrist 13.1645
rhand -33.1255 -27.6844
rfingers 7.12502
rthumb -6.33541 -57.5697
lclavicle 4.47266e-016 -3.97569e-015
lhumerus -29.0536 -7.94069 83.3335
lradius 55.2026
lwrist -10.3636
lhand -26.6965 -22.7478
lfingers 7.12502
lthumb -0.126956 7.23192
rfemur -12.499 4.60222 13.4655
rtibia 43.7564
rfoot -27.611 -20.8801
rtoes -4.31191
lfemur -15.7546 1.45551 -11.4084
ltibia 42.3474
lfoot -30.9497 17.7507
ltoes -26.0754
94
root 12.8458 16.0045 1.38057 -49.2381 -89.159 48.1309
lowerback -6.49997 0.838041 0.572083
upperback 3.90324 1.17373 -1.96207
thorax 7.80906 0.649994 -2.23509
lowerneck -5.93248 -1.06539 -1.47001
upperneck 6.59561 -1.66844 4.45425
head 3.2364 -0.708415 1.64175
rclavicle -4.96962e-016 1.07344e-014
rhumerus -31.7527 3.88481 -88.5458
rradius 52.321
rwrist 13.1885
rhand -33.2133 -27.561
rfingers 7.12502
rthumb -6.42018 -57.4437
lclavicle -4.96962e-016 1.07344e-014
lhumerus -29.0059 -7.75966 83.3737
lradius 55.188
lwrist -10.3611
lhand -26.7252 -22.7746
lfingers 7.12502
lthumb -0.154662 7.20505
rfemur -12.5393 4.68426 13.5197
rtibia 43.7626
rfoot -27.6182 -20.9029
rtoes -4.27527
lfemur -15.7609 1.5111 -11.3597
ltibia 42.3436
lfoot -30.9394 17.7529
ltoes -26.094
95
root 12.8438 16.0051 1.37996 -50.1941 -89.23 49.1186
lowerback -6.52485 0.809944 0.543762
upperback 3.91979 1.13496 -1.89596
thorax 7.83723 0.627958 -2.15427
lowerneck -6.0696 -1.04079 -1.53837
upperneck 6.6763 -1.62898 4.42891
head 3.28984 -0.688904 1.64855
rclavicle -2.5345e-015 -3.57812e-015
rhumerus -31.6575 4.00681 -88.5109
rradius 52.303
rwrist 13.1895
rhand -33.2225 -27.4102
rfingers 7.12502
rthumb -6.42898 -57.2926
lclavicle -2.5345e-015 -3.57812e-015
lhumerus -28.9564 -7.61687 83.4124
lradius 55.1662
lwrist -10.3472
lhand -26.7464 -22.7648
lfingers 7.12502
lthumb -0.175181 7.2149
rfemur -12.5846 4.75954 13.5806
rtibia 43.767
rfoot -27.6151 -20.9457
rtoes -4.32091
lfemur -15.7791 1.55781 -11.3057
ltibia 42.3423
lfoot -30.9265 17.7754
ltoes -26.1105
96
root 12.8422 16.0058 1.37935 -50.6278 -89.2848 49.585
lowerback -6.54345 0.789233 0.521003
upperback 3.92892 1.1064 -1.84464
thorax 7.85482 0.611518 -2.0909
lowerneck -6.17285 -1.03076 -1.5864
upperneck 6.74882 -1.61112 4.40746
head 3.33455 -0.680088 1.65186
rclavicle -7.45443e-015 -2.38542e-015
rhumerus -31.5852 4.08745 -88.4863
rradius 52.2933
rwrist 13.172
rhand -33.1623 -27.2523
rfingers 7.12502
rthumb -6.37093 -57.1365
lclavicle -7.45443e-015 -2.38542e-015
lhumerus -28.9126 -7.52842 83.4447
lradius 55.1501
lwrist -10.3163
lhand -26.7578 -22.7255
lfingers 7.12502
lthumb -0.186154 7.25415
rfemur -12.6256 4.80952 13.6328
rtibia 43.7684
rfoot -27.6204 -20.9784
rtoes -4.35906
lfemur -15.8063 1.58556 -11.2599
ltibia 42.3445
lfoot -30.9163 17.8143
ltoes -26.1068
97
root 12.8408 16.0063 1.37898 -50.8355 -89.3209 49.8194
lowerback -6.55441 0.810034 0.55041
upperback 3.91636 1.13216 -1.85401
thorax 7.84971 0.625968 -2.1138
lowerneck -6.16911 -1.05543 -1.54001
upperneck 6.79256 -1.65023 4.40026
head 3.34948 -0.69841 1.63957
rclavicle 1.2275e-014 -1.15295e-014
rhumerus -31.5877 4.00208 -88.5063
rradius 52.2978
rwrist 13.1607
rhand -33.0748 -27.1161
rfingers 7.12502
rthumb -6.28647 -57.0028
lclavicle 1.2275e-014 -1.15295e-014
lhumerus -28.9018 -7.61228 83.4432
lradius 55.1472
lwrist -10.2594
lhand -26.7579 -22.6731
lfingers 7.12502
lthumb -0.18625 7.30655
rfemur -12.6537 4.83201 13.6669
rtibia 43.7667
rfoot -27.6474 -20.9722
rtoes -4.30522
lfemur -15.8339 1.59742 -11.2294
ltibia 42.3505
lfoot -30.9164 17.8601
ltoes -26.0718
98
root 12.8393 16.0063 1.37903 -50.8985 -89.3491 49.8996
lowerback -6.56347 0.828561 0.582928
upperback 3.91145 1.1546 -1.8649
thorax 7.85172 0.639044 -2.14054
lowerneck -6.17141 -1.07901 -1.49218
upperneck 6.83603 -1.68724 4.38526
head 3.36525 -0.715835 1.62453
rclavicle 1.00883e-014 -2.34566e-014
rhumerus -31.5833 3.93111 -88.5273
rradius 52.2994
rwrist 13.1388
rhand -32.9676 -27.0128
rfingers 7.12502
rthumb -6.18292 -56.9026
lclavicle 1.00883e-014 -2.34566e-014
lhumerus -28.8845 -7.67764 83.4436
lradius 55.1479
lwrist -10.2132
lhand -26.751 -22.6292
lfingers 7.12502
lthumb -0.179551 7.3505
rfemur -12.6667 4.83311 13.6897
rtibia 43.7613
rfoot -27.6853 -20.9291
rtoes -4.17288
lfemur -15.8555 1.60224 -11.2067
ltibia 42.3605
lfoot -30.924 17.912
ltoes -26.0687
99
root 12.8375 16.0061 1.37949 -50.8301 -89.3735 49.8382
lowerback -6.5707 0.861482 0.644304
upperback 3.90017 1.19498 -1.89917
thorax 7.84798 0.663044 -2.20585
lowerneck -6.12877 -1.11134 -1.39839
upperneck 6.8621 -1.73942 4.36179
head 3.36591 -0.740672 1.59737
rclavicle 5.96354e-016 3.57812e-015
rhumerus -31.6073 3.8115 -88.5669
rradius 52.3033
rwrist 13.1229
rhand -32.8482 -26.9314
rfingers 7.12502
rthumb -6.06768 -56.8245
lclavicle 5.96354e-016 3.57812e-015
lhumerus -28.8814 -7.79408 83.4264
lradius 55.1516
lwrist -10.1719
lhand -26.7366 -22.6023
lfingers 7.12502
lthumb -0.165719 7.37738
rfemur -12.6656 4.82278 13.7059
rtibia 43.7525
rfoot -27.7108 -20.8804
rtoes -4.04782
lfemur -15.8667 1.60172 -11.1883
ltibia 42.3741
lfoot -30.9376 17.96
ltoes -26.1248
100
root 12.8352 16.0056 1.38018 -50.8586 -89.396 49.8651
lowerback -6.57999 0.896432 0.712871
upperback 3.8969 1.23775 -1.9398
thorax 7.85469 0.688838 -2.28162
lowerneck -6.09908 -1.14234 -1.28187
upperneck 6.88011 -1.79 4.32156
head 3.3655 -0.764616 1.5606
rclavicle 3.8763e-015 2.38542e-015
rhumerus -31.6201 3.69005 -88.6098
rradius 52.3029
rwrist 13.1158
rhand -32.7324 -26.8755
rfingers 7.12502
rthumb -5.95586 -56.7718
lclavicle 3.8763e-015 2.38542e-015
lhumerus -28.8685 -7.92159 83.3978
lradius 55.1588
lwrist -10.1324
lhand -26.7141 -22.5826
lfingers 7.12502
lthumb -0.14391 7.39706
rfemur -12.6536 4.8182 13.7194
rtibia 43.7419
rfoot -27.7171 -20.8513
rtoes -3.9783
lfemur -15.8657 1.60056 -11.1736
ltibia 42.3893
lfoot -30.9532 17.9882
ltoes -26.1971
